<svg width="1484" height="1505" viewBox="0 0 1484 1505" fill="none" xmlns="http://www.w3.org/2000/svg">
<ellipse cx="821.191" cy="301.691" rx="2.72877" ry="2.72958" fill="#999999"/>
<path d="M832.361 289.645C901.162 218.712 997.47 174.603 1104.04 174.603C1313.06 174.603 1482.5 344.091 1482.5 553.177C1482.5 698.354 1400.82 824.424 1280.9 887.932" stroke="#999999" stroke-width="1.5" stroke-miterlimit="10" stroke-linecap="round"/>
<ellipse cx="1273.62" cy="891.717" rx="2.72877" ry="2.72958" fill="#999999"/>
<path d="M1271.22 877.56L1255.9 900.051L1283.01 902.089L1271.22 877.56Z" fill="#999999"/>
<ellipse cx="349.513" cy="571.811" rx="2.72877" ry="2.72958" fill="#999999"/>
<path d="M341.509 557.435C295.302 470.089 283.15 364.836 316.113 263.405C380.694 64.5828 594.194 -44.2364 792.958 20.3636C930.997 65.2379 1025.63 181.918 1048.95 315.595" stroke="#999999" stroke-width="1.5" stroke-miterlimit="10" stroke-linecap="round"/>
<ellipse cx="1050.3" cy="323.711" rx="2.72877" ry="2.72958" fill="#999999"/>
<path d="M1036.07 321.636L1052.74 343.145L1063.03 317.96L1036.07 321.636Z" fill="#999999"/>
<ellipse cx="460.556" cy="1104.01" rx="2.72877" ry="2.72958" fill="#999999"/>
<path d="M444.438 1107.17C347.112 1124.13 243.273 1103.17 157.044 1040.5C-12.0673 917.594 -49.5425 680.848 73.2887 511.687C158.608 394.243 298.758 340.27 433.087 359.377" stroke="#999999" stroke-width="1.5" stroke-miterlimit="10" stroke-linecap="round"/>
<ellipse cx="441.237" cy="360.65" rx="2.72877" ry="2.72958" fill="#999999"/>
<path d="M434.87 373.534L460.484 364.326L439.709 346.748L434.87 373.534Z" fill="#999999"/>
<ellipse cx="1000.89" cy="1162.78" rx="2.72877" ry="2.72958" fill="#999999"/>
<path d="M998.889 1179.12C984.918 1276.95 932.925 1369.25 846.66 1431.92C677.549 1554.82 440.873 1517.3 318.042 1348.17C232.722 1230.73 224.754 1080.68 284.423 958.828" stroke="#999999" stroke-width="1.5" stroke-miterlimit="10" stroke-linecap="round"/>
<ellipse cx="288.135" cy="951.477" rx="2.72877" ry="2.72958" fill="#999999"/>
<path d="M298.431 961.521L297.594 934.298L274.454 948.638L298.431 961.521Z" fill="#999999"/>
<ellipse cx="1223.74" cy="666.945" rx="2.72877" ry="2.72958" fill="#999999"/>
<path d="M1238.66 673.86C1327.36 717.388 1399.04 795.381 1432 896.776C1496.58 1095.63 1387.79 1309.2 1189.03 1373.8C1050.99 1418.67 905.892 1379.91 808.457 1285.47" stroke="#999999" stroke-width="1.5" stroke-miterlimit="10" stroke-linecap="round"/>
<ellipse cx="802.562" cy="1279.68" rx="2.72877" ry="2.72958" fill="#999999"/>
<path d="M815.297 1273.02L789.173 1265.41L795.65 1291.84L815.297 1273.02Z" fill="#999999"/>
</svg>
