<svg width="80" height="79" viewBox="0 0 80 79" fill="none" xmlns="http://www.w3.org/2000/svg">
<path fill-rule="evenodd" clip-rule="evenodd" d="M74.7009 0.177734H4.73841C2.33974 0.177734 0.397217 2.12026 0.397217 4.51893V74.4814C0.397217 76.8801 2.33974 78.8226 4.73841 78.8226H42.4014V48.3674H32.154V36.4999H42.4014V27.7428C42.4014 17.5818 48.6065 12.0531 57.6703 12.0531C62.0115 12.0531 65.7393 12.3756 66.8285 12.521V23.1381H60.5448C55.6138 23.1381 54.6622 25.4817 54.6622 28.9185V36.4959H66.4156L64.8821 48.3634H54.6582V78.8226H74.7009C77.0995 78.8226 79.0421 76.8801 79.0421 74.4814V4.51893C79.0421 2.12026 77.0995 0.177734 74.7009 0.177734Z" fill="white"/>
</svg>
