<svg width="32" height="26" viewBox="0 0 32 26" fill="none" xmlns="http://www.w3.org/2000/svg">
<path d="M31.4655 6.30273V21.1938C31.4656 22.3977 31.0056 23.5561 30.1797 24.432C29.3538 25.3079 28.2244 25.8351 27.0226 25.9058L26.7457 25.9136H4.71983C3.51594 25.9137 2.35753 25.4537 1.48162 24.6278C0.6057 23.8019 0.0784946 22.6725 0.00786656 21.4707L0 21.1938V6.30273L14.8596 16.2097L15.0421 16.3135C15.2572 16.4186 15.4934 16.4732 15.7328 16.4732C15.9721 16.4732 16.2084 16.4186 16.4234 16.3135L16.6059 16.2097L31.4655 6.30273Z" fill="white"/>
<path d="M26.7457 0.741211C28.4448 0.741211 29.9347 1.63798 30.7654 2.98628L15.7328 13.008L0.700104 2.98628C1.09467 2.34567 1.63666 1.80868 2.28089 1.42006C2.92511 1.03145 3.65291 0.80247 4.40359 0.752224L4.71982 0.741211H26.7457Z" fill="white"/>
</svg>
