<svg width="32" height="30" viewBox="0 0 32 30" fill="none" xmlns="http://www.w3.org/2000/svg">
<path d="M21.7949 18.8419L21.0194 19.6139C21.0194 19.6139 19.1736 21.4479 14.1371 16.4404C9.10066 11.4329 10.9465 9.599 10.9465 9.599L11.434 9.11155C12.639 7.91507 12.7532 5.99253 11.7015 4.58812L9.55403 1.71964C8.25188 -0.0188299 5.73792 -0.248921 4.24658 1.23389L1.5707 3.89273C0.832705 4.62902 0.338433 5.58007 0.398087 6.63678C0.551481 9.34164 1.77523 15.1587 8.59957 21.9455C15.8381 29.1414 22.63 29.4278 25.4065 29.1687C26.2859 29.0869 27.0495 28.6404 27.6648 28.0268L30.085 25.6202C31.7212 23.9959 31.261 21.2093 29.1681 20.0724L25.9127 18.3016C24.539 17.5568 22.8687 17.7749 21.7949 18.8419Z" fill="white"/>
</svg>
