<svg width="32" height="32" viewBox="0 0 32 32" fill="none" xmlns="http://www.w3.org/2000/svg">
<path fill-rule="evenodd" clip-rule="evenodd" d="M14.6448 30.8788L14.6519 30.8859L14.6566 30.8906C14.9663 31.1253 15.3442 31.2523 15.7328 31.2523C16.1213 31.2523 16.4992 31.1253 16.8089 30.8906L16.8136 30.8859L16.8207 30.8788L16.849 30.8576C17.0009 30.7403 17.1504 30.6199 17.2974 30.4965C19.0569 29.0133 20.6734 27.3683 22.1258 25.5832C24.724 22.369 27.5323 17.6964 27.5323 12.3748C27.5323 9.24532 26.2892 6.24406 24.0763 4.03121C21.8635 1.81836 18.8622 0.575195 15.7328 0.575195C12.6033 0.575195 9.60206 1.81836 7.38921 4.03121C5.17636 6.24406 3.9332 9.24532 3.9332 12.3748C3.9332 17.6964 6.74149 22.369 9.34212 25.5832C10.7945 27.3683 12.411 29.0133 14.1705 30.4965L14.6165 30.8576L14.6448 30.8788ZM15.7328 15.9146C16.1976 15.9146 16.6579 15.8231 17.0874 15.6452C17.5169 15.4673 17.9071 15.2065 18.2358 14.8778C18.5645 14.5491 18.8253 14.1589 19.0032 13.7294C19.1811 13.2999 19.2726 12.8396 19.2726 12.3748C19.2726 11.9099 19.1811 11.4496 19.0032 11.0201C18.8253 10.5906 18.5645 10.2004 18.2358 9.8717C17.9071 9.54299 17.5169 9.28224 17.0874 9.10435C16.6579 8.92645 16.1976 8.83489 15.7328 8.83489C14.7939 8.83489 13.8936 9.20784 13.2297 9.8717C12.5658 10.5356 12.1929 11.4359 12.1929 12.3748C12.1929 13.3136 12.5658 14.214 13.2297 14.8778C13.8936 15.5417 14.7939 15.9146 15.7328 15.9146Z" fill="white"/>
</svg>
