<svg width="91" height="85" viewBox="0 0 91 85" fill="none" xmlns="http://www.w3.org/2000/svg">
<path d="M73.1133 34.5519C73.7279 34.576 74.3092 34.8336 74.7353 35.2707C75.1615 35.7078 75.3995 36.2904 75.3995 36.8966C75.3995 37.5028 75.1615 38.0855 74.7353 38.5226C74.3092 38.9596 73.7279 39.2172 73.1133 39.2414H66.4911V43.4251H73.1133C73.4332 43.4125 73.7524 43.4637 74.0517 43.5757C74.351 43.6877 74.6243 43.8581 74.8551 44.0768C75.086 44.2954 75.2696 44.5577 75.3951 44.848C75.5206 45.1383 75.5852 45.4506 75.5852 45.7661C75.5852 46.0816 75.5206 46.3939 75.3951 46.6842C75.2696 46.9745 75.086 47.2368 74.8551 47.4554C74.6243 47.6741 74.351 47.8445 74.0517 47.9564C73.7524 48.0684 73.4332 48.1197 73.1133 48.1071H64.1101C63.4822 48.1042 62.881 47.8565 62.4378 47.4183C61.9945 46.98 61.7452 46.3867 61.7442 45.7679V28.0253C61.7442 26.7423 62.8083 25.6824 64.1214 25.6824H73.1246C73.7551 25.6839 74.3592 25.9321 74.8039 26.3726C75.2487 26.813 75.4977 27.4095 75.4962 28.0309C75.4947 28.6522 75.2428 29.2476 74.7959 29.6859C74.349 30.1242 73.7438 30.3697 73.1133 30.3682H66.4911V34.5519H73.1133ZM58.567 45.7679C58.564 46.388 58.3117 46.9817 57.8654 47.4187C57.4191 47.8558 56.8152 48.1007 56.186 48.0997C55.8133 48.107 55.4442 48.0265 55.1094 47.8648C54.7747 47.703 54.484 47.4648 54.2616 47.17L45.0433 34.8345V45.7679C45.0017 46.3599 44.7338 46.9143 44.2936 47.3192C43.8535 47.7241 43.2738 47.9492 42.6717 47.9492C42.0696 47.9492 41.4899 47.7241 41.0497 47.3192C40.6096 46.9143 40.3417 46.3599 40.3001 45.7679V28.0253C40.2991 27.4082 40.5464 26.8158 40.9878 26.378C41.4291 25.9403 42.0286 25.6928 42.6547 25.6899C43.3905 25.6899 44.0697 26.0766 44.5225 26.6344L53.8126 39.0182V28.0253C53.8126 26.7423 54.8766 25.6824 56.1898 25.6824C57.4916 25.6824 58.567 26.7423 58.567 28.0253V45.7679ZM36.9041 45.7679C36.9036 46.0756 36.8416 46.3802 36.7217 46.6642C36.6018 46.9483 36.4263 47.2063 36.2052 47.4235C35.9841 47.6407 35.7217 47.8129 35.4331 47.9302C35.1445 48.0475 34.8353 48.1076 34.5231 48.1071C33.8953 48.1042 33.2941 47.8565 32.8508 47.4183C32.4075 46.98 32.1582 46.3867 32.1572 45.7679V28.0253C32.1572 26.7423 33.2213 25.6824 34.5344 25.6824C35.84 25.6824 36.9041 26.7423 36.9041 28.0253V45.7679ZM27.599 48.1071H18.5957C17.9671 48.1032 17.3653 47.8556 16.9205 47.4179C16.4756 46.9802 16.2235 46.3875 16.2185 45.7679V28.0253C16.2185 26.7423 17.2939 25.6824 18.5957 25.6824C19.9089 25.6824 20.973 26.7423 20.973 28.0253V43.4251H27.599C28.2126 43.4492 28.7929 43.7064 29.2184 44.1428C29.6439 44.5791 29.8815 45.1609 29.8815 45.7661C29.8815 46.3713 29.6439 46.953 29.2184 47.3894C28.7929 47.8258 28.2126 48.083 27.599 48.1071ZM90.6029 36.2291C90.6029 16.2551 70.2833 0 45.3225 0C20.3617 0 0.0421143 16.2551 0.0421143 36.2291C0.0421143 54.1205 16.1544 69.1112 37.9078 71.9598C39.3832 72.2648 41.3906 72.9193 41.9 74.154C42.3528 75.2733 42.1981 77.0026 42.0434 78.1703L41.4246 81.9636C41.2548 83.0829 40.519 86.3741 45.3829 84.3622C50.2543 82.3578 71.4794 69.1967 80.9883 58.4232C87.4936 51.3983 90.6029 44.2023 90.6029 36.2291Z" fill="white"/>
</svg>
